<svg height="512" viewBox="0 0 64 64" width="512" xmlns="http://www.w3.org/2000/svg"><path d="m18 29h2v2h-2z"/><path d="m22 29h2v2h-2z"/><path d="m26 29h2v2h-2z"/><path d="m30 29h2v2h-2z"/><path d="m34 29h2v2h-2z"/><path d="m38 29h2v2h-2z"/><path d="m42 29h2v2h-2z"/><path d="m21 38c.4 0 .925-.014 1.551-.035l11.742 11.742a1 1 0 0 0 .707.293h4a1 1 0 0 0 .929-1.372l-4.62-11.549c5.614-.451 11.814-1 15.52-1.328l3.419 3.908a1 1 0 0 0 .752.341h4a1 1 0 0 0 .9-1.447l-1.736-3.471.926-.082a1 1 0 0 0 .91-.91l2-22a1 1 0 0 0 -1-1.09h-4a1 1 0 0 0 -.919.606l-5.74 13.394h-15.778l5.345-11.581a1 1 0 0 0 -.908-1.419h-4a1 1 0 0 0 -.655.244l-14.718 12.756s-2.863.024-2.971.067c-11.748.671-14.456 6.276-14.565 6.516a1 1 0 0 0 .184 1.106c.206.217 5.201 5.311 18.725 5.311zm14.414 10-13-13h9.909l5.2 13zm20.04-10-5.254-6h4.178l3 6zm-20.081-24h2.064l-5.077 11h-9.679zm-21.373 13.338v1.662h-5.9a20.822 20.822 0 0 1 5.9-1.662zm-8.943 3.662h9.943a1 1 0 0 0 1-1v-2.877c.345-.028.686-.057 1.049-.075.088-.004 2.951-.048 2.951-.048h31a1 1 0 0 0 .919-.606l5.74-13.394h2.246l-1.825 20.081-.881.081-1.3-2.609a1 1 0 0 0 -.899-.553h-7a1 1 0 0 0 -.752 1.659l1.95 2.229c-3.9.345-9.579.841-14.667 1.247l-.6-1.507a1 1 0 0 0 -.931-.628h-13a1 1 0 0 0 -.707 1.707l1.285 1.285c-9.8-.084-14.685-3-16.263-4.189a7.374 7.374 0 0 1 .742-.803z"/></svg>